<svg id="Vrstva_1" data-name="Vrstva 1" xmlns="http://www.w3.org/2000/svg" viewBox="0 0 28 28.9"><defs><style>.cls-2{fill:none}</style></defs><path id="phone" d="M22.7 24c-.6-.7-3.7-4-3.7-4s-1-1.1-1.9-.4a29 29 0 00-2.4 2.3 24.1 24.1 0 01-3.6-2.5 19.42 19.42 0 01-4-5.1l-.6-1a33.63 33.63 0 002.2-2.7c.8-1-.4-2.1-.4-2.1s-3-3.3-3.7-3.9a1.57 1.57 0 00-1.5-.3c-1.5 1-3 2-3.1 6.2 0 4 2.9 8.1 5.9 11.2 3.1 3.6 7.3 7.2 11.4 7.2 3.9-.1 4.8-1.7 5.8-3.3-.1 0 .3-.9-.4-1.6z" fill="#9a26b6"/><path id="first" class="cls-2" d="M20.8 16.7a1.45 1.45 0 01-1.4-1.5 6.59 6.59 0 00-6.2-6.9h-.3a1.45 1.45 0 01-1.4-1.5 1.42 1.42 0 011.3-1.4c5.1-.1 9.3 4.3 9.3 9.8v.2a1.26 1.26 0 01-1.22 1.3z"/><path id="second" class="cls-2" d="M26.6 15.6a1.45 1.45 0 01-1.4-1.5C25.2 7.9 20.5 3 14.7 3a1.45 1.45 0 01-1.4-1.5A1.52 1.52 0 0114.7 0C22-.1 28 6.3 28 14.2a1.43 1.43 0 01-1.4 1.4z"/></svg>