<svg xmlns="http://www.w3.org/2000/svg" viewBox="0 0 330 20"><path fill="#9a26b6" d="M316.155 15.321a.646.646 0 01-.227-1.254l10.89-4.066-10.89-4.067a.647.647 0 01.453-1.212l12.513 4.672a.648.648 0 010 1.213L316.38 15.28a.645.645 0 01-.226.041M13.845 4.681a.647.647 0 01.227 1.254l-10.89 4.067 10.89 4.066a.647.647 0 01-.453 1.213L1.106 10.608a.647.647 0 010-1.213L13.62 4.723a.646.646 0 01.226-.042m15.199 12.557a.72.72 0 01-.276-.553.73.73 0 01.718-.718c.194 0 .36.083.47.166 1.934 1.74 3.867 2.514 6.52 2.514 2.9 0 4.889-1.63 4.889-3.84v-.056c0-2.044-1.078-3.231-5.47-4.116-4.64-.939-6.52-2.513-6.52-5.442v-.055c0-2.873 2.625-5.083 6.216-5.083 2.597 0 4.392.663 6.16 1.99.139.11.304.303.304.58a.731.731 0 01-.718.718.751.751 0 01-.47-.166c-1.685-1.298-3.37-1.823-5.331-1.823-2.845 0-4.724 1.63-4.724 3.646v.055c0 2.044 1.05 3.288 5.636 4.227 4.475.912 6.353 2.514 6.353 5.331v.056c0 3.121-2.68 5.276-6.409 5.276-2.9 0-5.166-.912-7.348-2.707zm24.253-5.608V.94c0-.387.331-.719.718-.719.387 0 .718.332.718.718v10.553c0 4.558 2.459 7.182 6.547 7.182 3.923 0 6.437-2.375 6.437-7.044V.94c0-.387.331-.719.718-.719s.718.332.718.718v10.525c0 5.553-3.232 8.508-7.928 8.508-4.641 0-7.928-2.928-7.928-8.342zM80.671 1.05c0-.387.332-.719.718-.719h6.299c4.254 0 7.182 2.183 7.182 5.912v.055c0 4.061-3.508 6.161-7.541 6.161h-5.221v6.602c0 .386-.332.718-.719.718s-.718-.332-.718-.718V1.05zm6.74 10.083c3.592 0 6.023-1.879 6.023-4.752v-.055c0-3.066-2.376-4.668-5.857-4.668h-5.47v9.475h5.305zM105.2 18.95V1.05c0-.387.331-.719.718-.719h12.486c.36 0 .663.304.663.664a.672.672 0 01-.663.663h-11.768v7.596h10.525c.36 0 .663.304.663.663 0 .36-.303.663-.663.663h-10.525v7.763h11.907c.359 0 .663.304.663.663a.673.673 0 01-.663.663h-12.625a.731.731 0 01-.718-.718zm24.584-17.9a.73.73 0 01.718-.719h7.403c2.376 0 4.282.746 5.442 1.907a5.099 5.099 0 011.464 3.59v.056c0 3.232-2.403 5.083-5.663 5.525l5.497 7.127c.138.166.221.331.221.497 0 .387-.359.746-.745.746-.276 0-.47-.165-.636-.387l-5.939-7.734h-6.326v7.403c0 .386-.331.718-.718.718s-.718-.332-.718-.718V1.05zm7.955 9.31c3.233 0 5.636-1.63 5.636-4.42v-.056c0-2.597-2.045-4.226-5.552-4.226h-6.603v8.701h6.52zM155.832.94a.73.73 0 01.718-.719c.387 0 .718.332.718.718v12.1L169.478.442a.7.7 0 01.497-.22c.36 0 .718.358.718.717 0 .194-.082.36-.22.498l-7.376 7.43 7.873 9.642c.138.165.22.303.22.524 0 .387-.359.746-.745.746a.716.716 0 01-.552-.276l-7.819-9.613-4.806 4.861v4.31a.731.731 0 01-.718.718.731.731 0 01-.718-.718V.94zm23.588 9.115V10c0-5.276 3.896-10 9.752-10 5.857 0 9.696 4.669 9.696 9.945V10c0 5.276-3.894 10-9.75 10-5.857 0-9.697-4.669-9.697-9.945zm17.957 0V10c0-4.779-3.48-8.701-8.26-8.701-4.779 0-8.204 3.867-8.204 8.646V10c0 4.779 3.48 8.702 8.26 8.702s8.204-3.867 8.204-8.647zm12.456-9.005c0-.387.331-.719.718-.719h5.719c6.077 0 10.276 4.172 10.276 9.614V10c0 5.442-4.2 9.669-10.276 9.669h-5.719a.731.731 0 01-.718-.718V1.05zm6.437 17.293c5.386 0 8.784-3.674 8.784-8.288V10c0-4.585-3.398-8.342-8.784-8.342h-5v16.685h5zm21.24.607V1.05c0-.387.332-.719.719-.719h12.486c.36 0 .663.304.663.664a.672.672 0 01-.663.663h-11.768v7.596h10.525c.36 0 .663.304.663.663 0 .36-.304.663-.663.663h-10.525v7.763h11.906c.36 0 .663.304.663.663a.673.673 0 01-.663.663H238.23a.731.731 0 01-.718-.718zm24.585-17.9c0-.387.332-.719.718-.719h7.404c2.376 0 4.282.746 5.442 1.907a5.099 5.099 0 011.464 3.59v.056c0 3.232-2.404 5.083-5.663 5.525l5.497 7.127c.138.166.22.331.22.497 0 .387-.358.746-.745.746-.276 0-.47-.165-.635-.387l-5.94-7.734h-6.325v7.403a.731.731 0 01-.719.718.731.731 0 01-.718-.718V1.05zm7.956 9.31c3.232 0 5.635-1.63 5.635-4.42v-.056c0-2.597-2.044-4.226-5.552-4.226h-6.602v8.701h6.519zm17.291 6.878a.718.718 0 01-.277-.553c0-.387.332-.718.718-.718.194 0 .36.083.47.166 1.934 1.74 3.868 2.514 6.52 2.514 2.9 0 4.889-1.63 4.889-3.84v-.056c0-2.044-1.077-3.231-5.47-4.116-4.64-.939-6.519-2.513-6.519-5.442v-.055c0-2.873 2.625-5.083 6.216-5.083 2.596 0 4.392.663 6.16 1.99.138.11.304.303.304.58a.732.732 0 01-.719.718.75.75 0 01-.469-.166c-1.685-1.298-3.37-1.823-5.331-1.823-2.846 0-4.724 1.63-4.724 3.646v.055c0 2.044 1.05 3.288 5.635 4.227 4.475.912 6.354 2.514 6.354 5.331v.056c0 3.121-2.68 5.276-6.41 5.276-2.9 0-5.165-.912-7.347-2.707z"/></svg>