<svg id="Vrstva_1" data-name="Vrstva 1" xmlns="http://www.w3.org/2000/svg" viewBox="0 0 28 28.9"><defs><style>.cls-1{fill:none;}.cls-2{fill:#9a26b6;}</style></defs><title>ico-phone-lines</title><path id="phone" class="cls-1" d="M22.7,24c-.6-.7-3.7-4-3.7-4s-1-1.1-1.9-.4a29,29,0,0,0-2.4,2.3,24.1,24.1,0,0,1-3.6-2.5,19.42,19.42,0,0,1-4-5.1l-.6-1a33.63,33.63,0,0,0,2.2-2.7c.8-1-.4-2.1-.4-2.1s-3-3.3-3.7-3.9a1.57,1.57,0,0,0-1.5-.3c-1.5,1-3,2-3.1,6.2,0,4,2.9,8.1,5.9,11.2,3.1,3.6,7.3,7.2,11.4,7.2,3.9-.1,4.8-1.7,5.8-3.3C23,25.6,23.4,24.7,22.7,24Z" transform="translate(0 0)"/><path id="first" class="cls-2" d="M20.8,16.7a1.45,1.45,0,0,1-1.4-1.5h0a6.59,6.59,0,0,0-6.2-6.9h-.3a1.45,1.45,0,0,1-1.4-1.5h0a1.42,1.42,0,0,1,1.3-1.4c5.1-.1,9.3,4.3,9.3,9.8v.2a1.26,1.26,0,0,1-1.22,1.3Z" transform="translate(0 0)"/><path id="second" class="cls-2" d="M26.6,15.6a1.45,1.45,0,0,1-1.4-1.5h0C25.2,7.9,20.5,3,14.7,3a1.45,1.45,0,0,1-1.4-1.5h0A1.52,1.52,0,0,1,14.7,0C22-.1,28,6.3,28,14.2A1.43,1.43,0,0,1,26.6,15.6Z" transform="translate(0 0)"/></svg>